<svg xmlns="http://www.w3.org/2000/svg" viewBox="0 0 510 112" width="510" height="112">
	<defs>
		<clipPath clipPathUnits="userSpaceOnUse" id="cp1">
			<path d="M0 0L510 0L510 112L0 112Z" />
		</clipPath>
	</defs>
	<style>
		tspan { white-space:pre }
		.shp0 { fill: #2c2e35 } 
		.shp1 { fill: #ffac2e } 
		.shp2 { fill: #054471 } 
	</style>
	<g id="Page 1" clip-path="url(#cp1)">
		<path id="Path 1" fill-rule="evenodd" class="shp0" d="M396.21 109.41C394.77 108.03 394.02 106.38 394.02 104.47L394.02 86.54C394.24 79.5 397.28 72.84 402.25 67.89C407.42 62.85 413.64 60.2 420.95 60.03L421.37 60.03C425.9 60.03 428.74 62.8 428.74 67.06C428.74 69 428.03 70.66 426.59 72.1C425.16 73.43 423.46 74.12 421.37 74.12L421.06 74.12C417.59 74.17 414.6 75.5 412.09 78.01C409.6 80.5 408.27 83.54 408.22 87.13L408.22 104.47C408.22 106.49 407.53 108.14 406.18 109.41C404.85 110.76 403.19 111.45 401.28 111.45C399.25 111.45 397.55 110.76 396.21 109.41ZM342.64 104.39C332.47 95.1 332.47 77.1 342.64 67.64C347.72 62.58 353.83 60.03 360.98 60.03C367.95 60.03 374.5 62.8 379.36 67.64C384.2 72.52 386.98 79.08 386.98 86.07C386.98 93.22 384.42 99.35 379.36 104.39C374.5 109.23 367.95 112 360.98 112C353.83 112 347.72 109.45 342.64 104.39ZM369.33 94.41C371.63 92.09 372.79 89.33 372.79 86.07C372.79 82.82 371.63 80.05 369.33 77.74C367.04 75.45 364.28 74.33 360.98 74.33C357.72 74.33 355.01 75.45 352.72 77.74C350.37 80.08 349.21 82.87 349.21 86.07C349.21 89.27 350.37 92.06 352.72 94.41C355.01 96.7 357.72 97.81 360.98 97.81C364.28 97.81 367.04 96.7 369.33 94.41ZM288.27 111.45C286.34 111.45 284.71 110.76 283.32 109.38C281.92 108 281.23 106.3 281.23 104.23C281.23 102.54 281.92 100.99 283.32 99.61L308.51 74.01L288.64 74.01C286.78 74.01 285.13 73.32 283.74 71.93C282.36 70.55 281.67 68.91 281.67 66.95C281.67 65.09 282.36 63.44 283.74 62.05C285.02 60.73 286.67 60.03 288.64 60.03L324.17 60.03C325.72 60.03 327.27 60.58 328.7 61.58C330.34 62.8 331.2 64.6 331.2 66.95C331.2 69.28 330.34 71.13 328.59 72.46L303.72 97.7L325.28 97.7C327.32 97.7 329.01 98.33 330.34 99.61C331.74 100.99 332.43 102.59 332.43 104.45C332.43 106.36 331.74 108 330.34 109.38C328.96 110.76 327.27 111.45 325.28 111.45L288.27 111.45ZM232.14 104.39C221.97 95.1 221.97 77.1 232.14 67.64C237.22 62.58 243.33 60.03 250.48 60.03C257.45 60.03 264 62.8 268.86 67.64C273.7 72.52 276.48 79.08 276.48 86.07C276.48 93.22 273.92 99.35 268.86 104.39C264 109.23 257.45 112 250.48 112C243.33 112 237.22 109.45 232.14 104.39ZM258.83 94.41C261.13 92.09 262.29 89.33 262.29 86.07C262.29 82.82 261.13 80.05 258.83 77.74C256.54 75.45 253.78 74.33 250.48 74.33C247.23 74.33 244.51 75.45 242.22 77.74C239.87 80.08 238.71 82.87 238.71 86.07C238.71 89.27 239.87 92.06 242.22 94.41C244.51 96.7 247.23 97.81 250.48 97.81C253.78 97.81 256.54 96.7 258.83 94.41ZM171.1 111.44C169.08 111.44 167.37 110.74 166.04 109.31C164.6 107.87 163.91 106.1 163.91 104.03L163.91 48.26C163.91 46.3 164.6 44.55 165.93 43.11C167.26 41.78 168.91 41.09 170.88 40.93L195.77 40.93C201.43 40.93 206.34 43 210.43 47.1C214.49 51.19 216.51 56.41 216.51 62.69C216.51 67.55 214.93 71.97 211.71 75.86C215.37 79.98 217.18 84.71 217.18 90.09C217.18 95.99 215.11 100.99 210.96 105.16C206.76 109.36 201.75 111.44 195.88 111.44L171.1 111.44ZM178.54 68.79L195.88 68.79C197.59 68.79 199.03 68.19 200.26 66.97C201.43 65.78 202.03 64.35 202.03 62.69C202.03 60.56 201.23 58.27 199.99 57.2C198.61 56.14 196.95 55.61 195.08 55.56L178.54 55.56L178.54 68.79ZM178.54 96.84L195.88 96.84C197.64 96.84 199.13 96.15 200.37 94.77C201.59 93.33 202.23 91.78 202.23 90.09C202.23 88.44 201.59 86.83 200.37 85.4C199.19 84.07 197.7 83.38 195.88 83.38L178.54 83.38L178.54 96.84Z" />
		<path id="Path 2" class="shp1" d="M13.99 107.25L56.85 107.25C57.56 107.25 58.25 107.14 58.89 106.94C56.14 106.06 54.13 103.48 54.13 100.44L54.13 50.61C54.13 48.02 54.46 45.53 55.05 43.15C49.59 37.24 42.76 33.08 38.45 30.93C36.48 29.95 34.36 29.95 32.39 30.93C24.25 34.98 7.18 46.2 7.18 62.79L7.18 100.44C7.18 104.19 10.24 107.25 13.99 107.25Z" />
		<path id="Path 3" class="shp2" d="M50.7 46.83C48.65 44.42 46.26 42.28 43.88 40.47C41.34 38.53 38.8 36.97 36.67 35.81C35.62 35.24 34.46 35.24 33.42 35.81C29.08 38.17 23 42.23 18.66 47.71C15.73 51.42 13.62 55.81 13.62 60.73L13.59 60.73L13.59 75.11L13.62 75.11L13.62 93.22C13.62 94.63 14.2 95.92 15.14 96.86C16.08 97.8 17.37 98.38 18.78 98.38L66.8 98.38L66.8 112L18.78 112C13.61 112 8.91 109.89 5.51 106.49C2.11 103.09 0 98.39 0 93.22L0 75.11L0.03 75.11L0.03 60.73L0 60.73C0 52.37 3.36 45.2 8.02 39.31C14.51 31.12 23.57 25.49 29.01 22.79C30.96 21.82 33 21.33 35.05 21.33C37.1 21.33 39.14 21.82 41.09 22.79L41.12 22.79C44.04 24.24 48.04 26.55 52.13 29.67C55.2 32.01 58.32 34.81 61.07 38.05L50.7 46.83Z" />
		<path id="Path 4" fill-rule="evenodd" class="shp2" d="M132.53 48.55L132.53 93.22C132.53 98.39 130.42 103.09 127.02 106.49C123.62 109.89 118.92 112 113.75 112L65.73 112C60.56 112 55.86 109.89 52.46 106.49C49.06 103.09 46.95 98.39 46.95 93.22L46.95 75.11L46.98 75.11L46.98 48.55L46.95 48.55C46.95 38.17 51.2 29.29 57.06 22.02C65.5 11.54 77.34 4.48 83.89 1.36L83.89 1.37L83.91 1.36C85.8 0.47 87.76 0.01 89.74 0.01C91.56 0.01 93.36 0.4 95.11 1.16L95.59 1.36C102.14 4.48 113.98 11.54 122.42 22.02C128.28 29.29 132.53 38.17 132.53 48.55ZM118.91 48.55C118.91 41.69 115.94 35.62 111.84 30.53C106.24 23.58 98.59 18.4 93.02 15.34C90.92 14.18 88.57 14.18 86.46 15.34C80.89 18.4 73.24 23.58 67.64 30.53C63.54 35.62 60.57 41.7 60.57 48.55L60.54 48.55L60.54 75.11L60.57 75.11L60.57 93.22C60.57 94.63 61.15 95.92 62.09 96.86C63.03 97.8 64.32 98.38 65.73 98.38L113.75 98.38C115.16 98.38 116.45 97.8 117.39 96.86C118.33 95.92 118.91 94.63 118.91 93.22L118.91 48.55ZM109.38 77.95C109.38 80.21 107.55 82.04 105.29 82.04C103.04 82.04 101.21 80.21 101.21 77.95L101.21 48.55C101.21 46.87 100.36 44.95 99 42.99C97.13 40.28 94.37 37.61 91.42 35.32C90.93 34.93 90.34 34.73 89.74 34.73C89.14 34.73 88.55 34.93 88.05 35.32C85.11 37.61 82.35 40.28 80.47 42.99C79.12 44.95 78.27 46.87 78.27 48.55L78.26 48.55L78.26 87.5C78.26 89.75 76.44 91.58 74.19 91.58C71.94 91.58 70.12 89.75 70.12 87.5L70.12 48.55L70.1 48.55C70.1 45.09 71.52 41.63 73.77 38.37C76.15 34.93 79.51 31.66 83.04 28.9C85.04 27.34 87.39 26.56 89.74 26.56C92.09 26.56 94.44 27.34 96.44 28.9C99.97 31.66 103.33 34.93 105.71 38.37C107.96 41.63 109.38 45.09 109.38 48.55L109.38 77.95Z" />
		<path id="Path 5" fill-rule="evenodd" class="shp1" d="M482.62 107.21L482.62 93.26C482.62 91.08 483.39 89.22 484.96 87.66C486.51 86.11 488.37 85.33 490.54 85.33C492.78 85.33 494.71 86.18 496.35 87.87C497.94 86.18 499.87 85.33 502.14 85.33C504.32 85.33 506.23 86.11 507.84 87.66C509.44 89.25 510.24 91.11 510.24 93.26L510.24 107.21C510.24 108.44 509.29 109.34 508.11 109.34C506.93 109.34 505.98 108.44 505.98 107.21L505.98 93.38C505.95 92.39 505.57 91.54 504.82 90.8C504.07 90.1 503.21 89.73 502.17 89.73C501.23 89.73 500.39 90.07 499.68 90.72C498.98 91.38 498.6 92.2 498.53 93.14C498.55 93.17 498.55 93.26 498.55 93.43L498.55 107.18C498.55 108.36 497.59 109.34 496.43 109.34C495.25 109.34 494.3 108.36 494.3 107.18L494.3 93.55C494.3 92.48 493.96 91.59 493.27 90.84C492.52 90.1 491.62 89.71 490.61 89.71C489.67 89.71 488.85 90.03 488.15 90.65C487.45 91.25 487.01 92.03 486.9 92.95C486.91 93.16 486.94 93.31 486.94 93.33L486.87 107.21C486.87 108.44 485.93 109.34 484.77 109.34C483.58 109.34 482.62 108.44 482.62 107.21ZM459.18 106.19C456.97 104.04 455.72 101.01 455.72 97.82C455.72 94.63 456.97 91.64 459.18 89.41C461.47 87.13 464.25 85.97 467.5 85.97C470.69 85.97 473.67 87.23 475.86 89.41C478.15 91.76 479.28 94.55 479.28 97.82C479.28 101.03 478.05 104.04 475.86 106.19C473.67 108.38 470.69 109.63 467.5 109.63C464.25 109.63 461.47 108.48 459.18 106.19ZM472.84 103.14C474.29 101.68 475.02 99.91 475.02 97.82C475.02 95.72 474.29 93.95 472.84 92.49C471.36 91.01 469.6 90.28 467.5 90.28C465.42 90.28 463.65 91.01 462.18 92.49C460.7 93.98 459.97 95.75 459.97 97.82C459.97 99.88 460.7 101.66 462.18 103.14C463.6 104.63 465.39 105.38 467.5 105.38C469.62 105.38 471.41 104.63 472.84 103.14ZM436.12 106.27C433.81 103.99 432.66 101.22 432.66 97.96C432.66 94.6 433.81 91.77 436.1 89.46C438.24 87.24 441.24 85.97 444.51 85.97C447.6 85.97 450.49 87.11 452.52 89.14C453.04 89.7 453.3 90.3 453.3 90.91C453.3 91.54 453.06 92.05 452.55 92.46C452.14 92.83 451.66 93.03 451.15 93.03C450.79 93.03 450.45 92.93 450.13 92.76L448.44 91.54C447.21 90.74 445.76 90.33 444.12 90.33C442.11 90.39 440.45 91.18 439.07 92.66C437.69 94.14 437.02 95.85 437.02 97.82C437.02 99.86 437.72 101.58 439.09 103.02C440.51 104.55 442.25 105.33 444.31 105.33C445.91 105.33 447.29 104.91 448.44 104.12L450.13 102.93C450.49 102.73 450.83 102.63 451.17 102.63C451.68 102.63 452.14 102.83 452.55 103.19C453.04 103.65 453.27 104.19 453.27 104.75C453.27 105.43 453.04 106 452.52 106.51C450.52 108.5 447.6 109.63 444.51 109.63C441.24 109.63 438.46 108.5 436.12 106.27ZM423.92 109.11C423.42 108.63 423.15 108.03 423.15 107.31C423.15 106.59 423.42 105.96 423.92 105.46C424.96 104.42 426.56 104.42 427.59 105.46C428.58 106.52 428.58 108.13 427.59 109.11C426.56 110.14 424.96 110.14 423.92 109.11Z" />
	</g>
</svg>