<svg xmlns="http://www.w3.org/2000/svg" viewBox="0 0 23 20" width="23" height="20">
	<style>
		tspan { white-space:pre }
		.shp0 { fill: #000000 } 
	</style>
	<g id="1">
		<g id="header">
			<path id="Forma 1" class="shp0" d="M8.59 16.18C7.53 16.18 6.67 17.03 6.67 18.09C6.67 19.14 7.53 20 8.59 20C9.65 20 10.51 19.14 10.51 18.09C10.51 17.03 9.65 16.18 8.59 16.18ZM16.97 16.18C15.91 16.18 15.05 17.03 15.05 18.09C15.05 19.14 15.91 20 16.97 20C18.04 20 18.9 19.14 18.9 18.09C18.9 17.03 18.04 16.18 16.97 16.18ZM21.8 5.71L11.16 5.71C10.63 5.71 10.2 6.14 10.2 6.66C10.2 7.19 10.63 7.62 11.16 7.62L20.57 7.62L19.98 9.63L10.41 9.63C9.91 9.63 9.51 10.03 9.51 10.52C9.51 11.01 9.91 11.41 10.41 11.41L19.45 11.42L18.89 13.3L8.1 13.3L7.38 7.62L6.7 2.09C6.64 1.66 6.33 1.3 5.9 1.19L1.35 0.03C0.77 -0.11 0.18 0.23 0.03 0.81C-0.11 1.38 0.24 1.97 0.81 2.11L4.65 3.09L6.15 14.24C6.15 14.24 6.2 15.54 7.38 15.54L19.31 15.54C20.31 15.54 20.5 14.51 20.5 14.51L22.86 7.53C22.86 7.53 23.56 5.71 21.8 5.71Z" />
		</g>
	</g>
</svg>