<svg xmlns="http://www.w3.org/2000/svg" viewBox="0 0 31 31" width="31" height="31">
	<style>
		tspan { white-space:pre }
		.shp0 { fill: #ffffff } 
	</style>
	<g id="1">
		<g id="footer">
			<path id="Forma 1" class="shp0" d="M14.85 23.9L16.15 23.9L16.15 11.62L14.85 11.62L14.85 23.9ZM15.5 0C6.94 0 0 6.94 0 15.5C0 24.06 6.94 31 15.5 31C24.06 31 31 24.06 31 15.5C31 6.94 24.06 0 15.5 0ZM15.5 29.71C7.67 29.71 1.29 23.33 1.29 15.5C1.29 7.67 7.67 1.29 15.5 1.29C23.33 1.29 29.71 7.67 29.71 15.5C29.71 23.33 23.33 29.71 15.5 29.71ZM15.5 6.46C14.95 6.46 14.21 7.24 14.21 7.75C14.21 8.26 14.95 9.04 15.5 9.04C16.05 9.04 16.79 8.3 16.79 7.75C16.79 7.2 16.05 6.46 15.5 6.46Z" />
		</g>
	</g>
</svg>