<svg xmlns="http://www.w3.org/2000/svg" viewBox="0 0 22 22" width="22" height="22">
	<style>
		tspan { white-space:pre }
		.shp0 { fill: #000000 } 
	</style>
	<g id="1">
		<g id="header">
			<path id="Forma 1" class="shp0" d="M18.78 14.22C17.58 13.02 16.15 12.14 14.6 11.6C16.26 10.45 17.36 8.53 17.36 6.36C17.36 2.85 14.51 0 11 0C7.49 0 4.64 2.85 4.64 6.36C4.64 8.53 5.74 10.45 7.4 11.6C5.85 12.14 4.42 13.02 3.22 14.22C1.14 16.3 0 19.06 0 22L1.72 22C1.72 16.88 5.88 12.72 11 12.72C16.12 12.72 20.28 16.88 20.28 22L22 22C22 19.06 20.86 16.3 18.78 14.22ZM11 11C8.44 11 6.36 8.92 6.36 6.36C6.36 3.8 8.44 1.72 11 1.72C13.56 1.72 15.64 3.8 15.64 6.36C15.64 8.92 13.56 11 11 11Z" />
		</g>
	</g>
</svg>