<svg xmlns="http://www.w3.org/2000/svg" viewBox="0 0 18 19" width="18" height="19">
	<style>
		tspan { white-space:pre }
		.shp0 { fill: #ffffff } 
	</style>
	<g id="1">
		<g id="header">
			<path id="Shape 1" class="shp0" d="M14.24 11.76C13.87 11.36 13.43 11.14 12.96 11.14C12.49 11.14 12.04 11.36 11.65 11.76L10.45 13.02C10.35 12.97 10.25 12.92 10.16 12.86C10.02 12.79 9.89 12.72 9.78 12.65C8.65 11.9 7.63 10.91 6.65 9.64C6.17 9.01 5.85 8.47 5.62 7.93C5.93 7.63 6.22 7.32 6.5 7.02C6.61 6.9 6.72 6.79 6.82 6.68C7.62 5.83 7.62 4.74 6.82 3.9L5.78 2.8C5.67 2.68 5.54 2.55 5.43 2.42C5.2 2.17 4.96 1.92 4.71 1.68C4.34 1.29 3.9 1.09 3.44 1.09C2.97 1.09 2.52 1.29 2.14 1.68C2.14 1.68 2.14 1.68 2.14 1.68L0.84 3.06C0.35 3.57 0.08 4.2 0.02 4.93C-0.08 6.1 0.25 7.19 0.5 7.9C1.12 9.66 2.04 11.28 3.42 13.02C5.08 15.12 7.09 16.78 9.38 17.95C10.26 18.39 11.43 18.9 12.73 18.99C12.81 19 12.9 19 12.97 19C13.85 19 14.59 18.67 15.17 18C15.17 18 15.18 17.99 15.18 17.98C15.38 17.73 15.61 17.5 15.85 17.26C16.01 17.09 16.18 16.92 16.35 16.74C16.72 16.33 16.92 15.85 16.92 15.35C16.92 14.85 16.72 14.38 16.33 13.98L14.24 11.76ZM15.61 15.99C15.6 15.99 15.6 15.99 15.61 15.99C15.46 16.16 15.31 16.31 15.14 16.48C14.89 16.73 14.64 16.99 14.41 17.28C14.02 17.72 13.57 17.92 12.98 17.92C12.92 17.92 12.86 17.92 12.8 17.92C11.67 17.84 10.62 17.37 9.83 16.98C7.68 15.88 5.78 14.32 4.21 12.34C2.91 10.69 2.04 9.16 1.47 7.53C1.12 6.53 0.99 5.75 1.04 5.01C1.08 4.55 1.25 4.16 1.57 3.82L2.87 2.45C3.05 2.27 3.25 2.17 3.45 2.17C3.69 2.17 3.88 2.32 4 2.45C4.01 2.45 4.01 2.46 4.01 2.46C4.25 2.69 4.47 2.93 4.7 3.18C4.82 3.31 4.94 3.44 5.06 3.57L6.1 4.67C6.5 5.09 6.5 5.48 6.1 5.91C5.99 6.03 5.88 6.14 5.77 6.26C5.45 6.6 5.15 6.92 4.82 7.23C4.81 7.24 4.8 7.25 4.8 7.25C4.47 7.6 4.53 7.94 4.6 8.17C4.6 8.18 4.61 8.19 4.61 8.2C4.88 8.89 5.26 9.54 5.84 10.32L5.84 10.32C6.9 11.68 8 12.75 9.23 13.56C9.38 13.67 9.54 13.75 9.69 13.83C9.83 13.9 9.96 13.97 10.07 14.04C10.09 14.05 10.1 14.06 10.12 14.07C10.25 14.14 10.37 14.17 10.49 14.17C10.81 14.17 11.01 13.96 11.07 13.9L12.37 12.52C12.5 12.39 12.71 12.22 12.95 12.22C13.18 12.22 13.38 12.38 13.5 12.51C13.5 12.52 13.5 12.52 13.5 12.52L15.6 14.73C15.99 15.14 15.99 15.56 15.61 15.99ZM9.74 4.51C10.73 4.69 11.64 5.18 12.36 5.95C13.09 6.71 13.55 7.66 13.73 8.71C13.77 8.98 13.98 9.16 14.23 9.16C14.26 9.16 14.29 9.16 14.32 9.16C14.6 9.11 14.79 8.83 14.74 8.53C14.54 7.26 13.97 6.1 13.09 5.18C12.22 4.26 11.12 3.66 9.91 3.44C9.63 3.39 9.37 3.59 9.32 3.88C9.27 4.18 9.45 4.46 9.74 4.51ZM18.01 8.37C17.67 6.28 16.73 4.37 15.29 2.86C13.85 1.34 12.04 0.35 10.06 -0.01C9.78 -0.06 9.51 0.14 9.47 0.44C9.42 0.73 9.61 1.01 9.89 1.06C11.66 1.38 13.28 2.27 14.57 3.62C15.85 4.97 16.69 6.68 16.99 8.55C17.03 8.82 17.25 9 17.5 9C17.53 9 17.56 9 17.59 8.99C17.86 8.95 18.05 8.67 18.01 8.37Z" />
		</g>
	</g>
</svg>