<svg xmlns="http://www.w3.org/2000/svg" viewBox="0 0 33 24" width="33" height="24">
	<style>
		tspan { white-space:pre }
		.shp0 { fill: #ffffff } 
	</style>
	<g id="1">
		<g id="footer">
			<path id="Forma 1" class="shp0" d="M26.72 18.54C26.59 18.54 26.46 18.49 26.35 18.39L20.23 12.51C20.02 12.31 20.01 11.96 20.21 11.74C20.41 11.52 20.74 11.51 20.96 11.72L27.08 17.6C27.3 17.8 27.31 18.15 27.11 18.37C27 18.48 26.86 18.54 26.72 18.54ZM6.28 18.54C6.14 18.54 6 18.48 5.89 18.37C5.69 18.15 5.7 17.8 5.92 17.6L12.04 11.72C12.26 11.51 12.59 11.52 12.79 11.74C12.99 11.96 12.98 12.31 12.77 12.51L6.64 18.39C6.54 18.49 6.41 18.54 6.28 18.54ZM30.34 24L2.66 24C1.19 24 0 22.78 0 21.28L0 2.72C0 1.22 1.19 0 2.66 0L30.34 0C31.81 0 33 1.22 33 2.72L33 21.28C33 22.78 31.81 24 30.34 24ZM2.66 1.09C1.78 1.09 1.06 1.82 1.06 2.72L1.06 21.28C1.06 22.18 1.78 22.91 2.66 22.91L30.34 22.91C31.22 22.91 31.94 22.18 31.94 21.28L31.94 2.72C31.94 1.82 31.22 1.09 30.34 1.09L2.66 1.09ZM16.5 14.74C15.79 14.74 15.08 14.49 14.55 14.01L0.88 1.82C0.66 1.62 0.64 1.28 0.83 1.05C1.03 0.82 1.36 0.8 1.58 1L15.25 13.19C15.93 13.8 17.07 13.8 17.75 13.19L31.4 1.02C31.62 0.82 31.96 0.84 32.15 1.07C32.34 1.3 32.32 1.64 32.1 1.84L18.45 14.01C17.91 14.49 17.21 14.74 16.5 14.74Z" />
		</g>
	</g>
</svg>