<svg xmlns="http://www.w3.org/2000/svg" viewBox="0 0 31 22" width="31" height="22">
	<style>
		tspan { white-space:pre }
		.shp0 { fill: #ffffff } 
	</style>
	<g id="1">
		<g id="chat">
			<path id="Forma 1" class="shp0" d="M25.1 16.99C24.98 16.99 24.85 16.95 24.76 16.86L19.01 11.47C18.8 11.28 18.79 10.97 18.98 10.76C19.17 10.56 19.49 10.55 19.69 10.74L25.44 16.13C25.64 16.32 25.65 16.63 25.46 16.83C25.37 16.94 25.23 16.99 25.1 16.99ZM5.9 16.99C5.77 16.99 5.63 16.94 5.53 16.83C5.35 16.63 5.36 16.32 5.56 16.13L11.31 10.74C11.51 10.56 11.83 10.56 12.02 10.76C12.21 10.97 12.2 11.28 12 11.47L6.24 16.86C6.15 16.95 6.02 16.99 5.9 16.99ZM28.5 22L2.5 22C1.12 22 0 20.88 0 19.51L0 2.49C0 1.12 1.12 0 2.5 0L28.5 0C29.88 0 31 1.12 31 2.49L31 19.51C31 20.88 29.88 22 28.5 22ZM2.5 1C1.67 1 1 1.67 1 2.49L1 19.51C1 20.33 1.67 21 2.5 21L28.5 21C29.33 21 30 20.33 30 19.51L30 2.49C30 1.67 29.33 1 28.5 1L2.5 1ZM15.5 13.51C14.84 13.51 14.17 13.29 13.66 12.85L0.83 1.67C0.62 1.49 0.6 1.17 0.78 0.96C0.96 0.76 1.28 0.74 1.49 0.91L14.32 12.09C14.96 12.65 16.04 12.65 16.68 12.09L29.5 0.93C29.7 0.75 30.02 0.77 30.2 0.98C30.38 1.19 30.36 1.5 30.15 1.69L17.34 12.85C16.83 13.29 16.16 13.51 15.5 13.51Z" />
		</g>
	</g>
</svg>