<svg xmlns="http://www.w3.org/2000/svg" viewBox="0 0 27 28" width="27" height="28">
	<style>
		tspan { white-space:pre }
		.shp0 { fill: #ffffff } 
	</style>
	<g id="1">
		<g id="footer">
			<path id="Shape 1" class="shp0" d="M21.37 17.34C20.81 16.74 20.14 16.42 19.43 16.42C18.73 16.42 18.06 16.73 17.48 17.33L15.68 19.19C15.53 19.11 15.38 19.03 15.24 18.96C15.03 18.85 14.84 18.75 14.67 18.64C12.98 17.53 11.45 16.08 9.97 14.21C9.26 13.27 8.78 12.49 8.43 11.69C8.9 11.25 9.33 10.78 9.75 10.34C9.91 10.18 10.07 10 10.23 9.84C11.43 8.6 11.43 6.99 10.23 5.75L8.68 4.13C8.5 3.95 8.32 3.76 8.14 3.57C7.8 3.2 7.44 2.83 7.07 2.47C6.52 1.9 5.85 1.6 5.16 1.6C4.46 1.6 3.79 1.9 3.22 2.47C3.21 2.48 3.21 2.48 3.2 2.48L1.26 4.51C0.53 5.27 0.11 6.19 0.02 7.26C-0.11 8.99 0.38 10.6 0.75 11.65C1.68 14.23 3.06 16.63 5.12 19.19C7.62 22.29 10.63 24.73 14.07 26.45C15.39 27.09 17.14 27.86 19.1 27.99C19.22 27.99 19.34 28 19.46 28C20.78 28 21.88 27.51 22.75 26.53C22.76 26.52 22.77 26.52 22.78 26.5C23.07 26.13 23.42 25.79 23.78 25.43C24.02 25.19 24.27 24.94 24.52 24.67C25.08 24.06 25.38 23.35 25.38 22.62C25.38 21.89 25.08 21.19 24.5 20.6L21.37 17.34ZM23.41 23.56C23.4 23.56 23.4 23.57 23.41 23.56C23.19 23.81 22.96 24.04 22.71 24.29C22.34 24.65 21.96 25.04 21.61 25.47C21.03 26.11 20.35 26.41 19.46 26.41C19.38 26.41 19.29 26.41 19.2 26.4C17.5 26.29 15.93 25.6 14.75 25.02C11.51 23.4 8.68 21.1 6.32 18.18C4.37 15.75 3.07 13.51 2.2 11.09C1.67 9.62 1.48 8.47 1.56 7.39C1.62 6.7 1.88 6.12 2.35 5.63L4.3 3.62C4.58 3.35 4.88 3.2 5.17 3.2C5.53 3.2 5.82 3.42 6 3.61C6.01 3.62 6.01 3.62 6.02 3.63C6.37 3.97 6.7 4.32 7.05 4.69C7.22 4.88 7.41 5.07 7.59 5.26L9.15 6.88C9.75 7.5 9.75 8.08 9.15 8.71C8.98 8.88 8.82 9.05 8.66 9.22C8.18 9.73 7.72 10.2 7.22 10.66C7.21 10.67 7.2 10.68 7.2 10.69C6.7 11.2 6.8 11.7 6.9 12.03C6.9 12.05 6.91 12.07 6.92 12.09C7.32 13.1 7.89 14.06 8.76 15.2L8.77 15.21C10.34 17.22 12 18.79 13.84 19.99C14.07 20.14 14.31 20.26 14.54 20.38C14.75 20.49 14.94 20.59 15.11 20.7C15.13 20.71 15.15 20.73 15.17 20.74C15.37 20.84 15.55 20.89 15.74 20.89C16.21 20.89 16.51 20.58 16.61 20.48L18.56 18.46C18.76 18.25 19.06 18.01 19.42 18.01C19.78 18.01 20.07 18.24 20.25 18.44C20.25 18.45 20.25 18.45 20.26 18.46L23.4 21.71C23.99 22.32 23.99 22.94 23.41 23.56ZM14.6 6.65C16.1 6.91 17.46 7.64 18.54 8.76C19.63 9.89 20.33 11.29 20.59 12.84C20.65 13.23 20.98 13.51 21.35 13.51C21.39 13.51 21.43 13.5 21.48 13.49C21.9 13.42 22.18 13.01 22.11 12.57C21.8 10.7 20.95 8.99 19.64 7.63C18.33 6.28 16.68 5.39 14.87 5.07C14.45 5 14.05 5.29 13.98 5.72C13.91 6.15 14.18 6.57 14.6 6.65ZM27.01 12.34C26.5 9.25 25.09 6.44 22.94 4.21C20.78 1.97 18.06 0.52 15.08 -0.01C14.67 -0.08 14.27 0.21 14.2 0.64C14.13 1.08 14.41 1.49 14.83 1.57C17.49 2.03 19.92 3.34 21.85 5.33C23.78 7.33 25.04 9.84 25.49 12.6C25.55 12.99 25.88 13.26 26.25 13.26C26.29 13.26 26.33 13.26 26.38 13.25C26.8 13.19 27.08 12.77 27.01 12.34Z" />
		</g>
	</g>
</svg>